<?xml version="1.0" standalone="no"?><!DOCTYPE svg PUBLIC "-//W3C//DTD SVG 1.1//EN" "http://www.w3.org/Graphics/SVG/1.1/DTD/svg11.dtd"><svg t="1774876599110" class="icon" viewBox="0 0 1024 1024" version="1.1" xmlns="http://www.w3.org/2000/svg" p-id="17340" id="mx_n_1774876599111" xmlns:xlink="http://www.w3.org/1999/xlink" width="200" height="200"><path d="M563.157967 1023.936547H55.536205v-126.90544h507.621762zM759.04709 792.655612l-89.734837-89.736952 209.383401-209.383402 89.734837 89.736953z" fill="#4CD392" p-id="17341"></path><path d="M415.080469 0L175.694506 239.301359l112.099806 112.099806A158.638146 158.638146 0 0 0 512.184282 575.706531l112.269013 112.269013 239.301359-239.301359z m-37.394804 441.017557a31.72636 31.72636 0 1 1 0 44.861073 31.72636 31.72636 0 0 1 0-44.861073z m37.394804-261.530962l269.208741 269.18759-59.835915 59.835915-67.259884-67.281034a158.631801 158.631801 0 0 0-134.858181-134.837031l-67.090677-67.090676z" fill="#4CD392" p-id="17342"></path><path d="M400.782456 431.75346h2.643863v0.169207c-0.867187-0.105755-1.755525-0.148056-2.643863-0.169207zM399.005779 431.774611a31.73059 31.73059 0 0 0 1.120999 63.45272 28.21531 28.21531 0 0 0 3.299541-0.190358v63.643078a169.207254 169.207254 0 0 0 0 338.414508H563.157967v126.905441h-159.731648c-163.263849 0-296.112695-132.848845-296.112695-296.112695 0-161.846739 130.437642-293.722642 291.692155-296.112694z" fill="#4CD392" p-id="17343"></path><path d="M160.571608 897.052258H563.157967v126.90544h-159.731648a295.985789 295.985789 0 0 1-242.854711-126.90544z" fill="#40BF73" p-id="17344"></path><path d="M304.846173 590.374685L230.877222 487.359194l97.137654-69.751461 73.968951 103.015492z" fill="#40BF73" p-id="17345"></path></svg>