<?xml version="1.0" standalone="no"?><!DOCTYPE svg PUBLIC "-//W3C//DTD SVG 1.1//EN" "http://www.w3.org/Graphics/SVG/1.1/DTD/svg11.dtd"><svg t="1774875212443" class="icon" viewBox="0 0 1024 1024" version="1.1" xmlns="http://www.w3.org/2000/svg" p-id="7853" xmlns:xlink="http://www.w3.org/1999/xlink" width="200" height="200"><path d="M658.592 433.632m-28.816 0a28.816 28.816 0 1 0 57.632 0 28.816 28.816 0 1 0-57.632 0Z" fill="#5F5F5F" p-id="7854"></path><path d="M822.8 433.632m-28.816 0a28.816 28.816 0 1 0 57.632 0 28.816 28.816 0 1 0-57.632 0Z" fill="#5F5F5F" p-id="7855"></path><path d="M683.952 231.424h28.8v28.8a28.8 28.8 0 1 0 57.6 0v-28.8h28.8a28.8 28.8 0 1 0 0-57.6h-28.8v-28.8a28.8 28.8 0 1 0-57.6 0v28.8h-28.8a28.8 28.8 0 1 0 0 57.6z" fill="#5F5F5F" p-id="7856"></path><path d="M991.28 166.832a132.4 132.4 0 0 0-31.456-93.072A138.848 138.848 0 0 0 851.2 32H636.8A138.848 138.848 0 0 0 528 73.776a133.264 133.264 0 0 0-31.456 93.072v172.208c-0.72 16.128-7.152 230.112 94.4 340.032a194.512 194.512 0 0 0 117.232 61.552 212.544 212.544 0 0 1-422.4-4.4c105.792-30.048 185.136-186.864 185.136-309.984 0-57.168-7.856-120.176-67.904-159.024a80.128 80.128 0 0 0 2.144-18.32 70.816 70.816 0 1 0-70.768 73.28 64.512 64.512 0 0 0 25.728-5.136c0.72 0 0.72 0.736 1.424 0.736 29.312 15.392 46.4 37.376 46.4 108.464 0 116.512-82.912 249.168-155.824 249.168s-155.824-132.64-155.824-249.168c0-71.088 17.152-93.072 45.744-108.464 0.72 0 0.72-0.736 1.424-0.736a73.312 73.312 0 0 0 25.728 5.136 72.944 72.944 0 0 0 0-145.84 72.448 72.448 0 0 0-71.424 72.56 85.104 85.104 0 0 0 2.144 18.288C67.744 287.024 32 323.664 32 426.256A401.856 401.856 0 0 0 87.76 621.92c37.168 62.288 84.352 103.328 133.664 115.056A281.776 281.776 0 0 0 497.344 992a280.928 280.928 0 0 0 275.92-252.8 199.696 199.696 0 0 0 116.512-60.8C994.848 567.696 992 351.504 992 338.32V166.832z m-57.904 202.272a690.112 690.112 0 0 1-20.016 139.968l-128-16.128a314.096 314.096 0 0 0-82.912 0l-131.52 16.128a715.376 715.376 0 0 1-17.152-140.704h379.6zM570.256 113.344c13.584-15.392 35.744-22.72 66.48-22.72H851.2a83.808 83.808 0 0 1 65.76 22.72 78 78 0 0 1 17.152 50.56V310.4H553.808V163.84a74.496 74.496 0 0 1 16.448-50.496zM353.6 248.912a20.016 20.016 0 1 1-20.016-20.512 20.72 20.72 0 0 1 20.016 20.512z m-205.152 0a20.016 20.016 0 1 1 20.016 20.512 19.792 19.792 0 0 1-19.952-20.512zM848.32 638.048a143.312 143.312 0 0 1-108.656 46.16 138.576 138.576 0 0 1-107.2-45.44 229.024 229.024 0 0 1-43.664-72.544l120.8-15.392a268.8 268.8 0 0 1 68.624 0l115.792 14.656a243.008 243.008 0 0 1-45.696 72.56z" fill="#5F5F5F" p-id="7857"></path></svg>