<?xml version="1.0" standalone="no"?><!DOCTYPE svg PUBLIC "-//W3C//DTD SVG 1.1//EN" "http://www.w3.org/Graphics/SVG/1.1/DTD/svg11.dtd"><svg t="1774876464072" class="icon" viewBox="0 0 1024 1024" version="1.1" xmlns="http://www.w3.org/2000/svg" p-id="13237" xmlns:xlink="http://www.w3.org/1999/xlink" width="200" height="200"><path d="M890.571 0h-763.001c-115.714 0-125.857 133.571-125.857 133.571v772.286c0 78.714 125.857 118.143 125.857 118.143h566l328.714-323.714v-577.001c0-99.286-131.714-123.286-131.714-123.286v0zM942.571 668.143c0 40.429-42.571 42.571-42.571 42.571h-145.142c-47.429 0-47.001 36-47.001 36v143.857c0 50.857-25.714 52.999-25.714 52.999h-536c-58.286 0-64.571-49.714-64.571-49.714v-741.429c0-65.143 64.571-77.001 64.571-77.001s662.714 3.286 723.714 3.286c60.857 0 72.857 72.857 72.857 72.857v516.571h-0.143zM942.571 668.143zM789.429 354c0 22-17.714 39.714-39.714 39.714h-479.571c-22 0-39.714-17.714-39.714-39.714v0c0-22 17.714-39.714 39.714-39.714h479.714c21.857 0 39.571 17.714 39.571 39.714v0 0zM789.429 354zM704.714 555.857c0 21.143-17.286 38.429-38.571 38.429h-397.287c-21.143 0-38.429-17.286-38.429-38.429v0c0-21.429 17.286-38.571 38.429-38.571h397.287c21.286-0.143 38.571 17.142 38.571 38.571v0 0zM704.714 555.857z" fill="#272636" p-id="13238"></path></svg>